<svg viewBox="0 0 16 16" fill="none" xmlns="http://www.w3.org/2000/svg"><path fill-rule="evenodd" clip-rule="evenodd" d="M6.33 6.666A.67.67 0 0 0 5.659 6H4v1.333h1.658a.67.67 0 0 0 .673-.667zm-.672 1.667H4V10h2c.368 0 .661-.431.661-.8 0-.71-.634-.867-1.003-.867z" fill="#4F4F4F"/><path fill-rule="evenodd" clip-rule="evenodd" d="M13.95 0H2.05C.925 0 0 .924 0 2.05v11.9C0 15.075.924 16 2.05 16h11.9c1.126 0 2.05-.924 2.05-2.05V2.05C16 .925 15.076 0 13.95 0zM9.332 5h3v1h-3V5zM6 11.333H2.667V4.667h3.332a1.667 1.667 0 0 1 .87 3.088A1.684 1.684 0 0 1 8.004 9.33 2.01 2.01 0 0 1 6 11.333zM13.333 9H9.67c.047.733.54 1.334 1.173 1.334.624 0 .974-.4 1.097-1h1.353c-.227 1.133-.946 2.003-2.45 2.003-1.513 0-2.507-1.115-2.507-2.505 0-1.381.99-2.496 2.504-2.496 1.504 0 2.494 1.115 2.494 2.496V9z" fill="#4F4F4F"/><path fill-rule="evenodd" clip-rule="evenodd" d="M10.842 7.34c-.586 0-1.03.393-1.107.993h2.204c-.095-.6-.52-.993-1.097-.993z" fill="#4F4F4F"/></svg>