<svg viewBox="0 0 16 16" fill="none" xmlns="http://www.w3.org/2000/svg"><path d="M2.188 16h11.624C15.021 16 16 15.02 16 13.813V2.187C16 .98 15.02 0 13.813 0H2.187C.98 0 0 .98 0 2.187v11.625C0 15.021.98 16 2.187 16z" fill="#4F4F4F"/><path d="M11.677 9.61c-.116 0-.2.056-.23.15-.013.042-.028-.002-.028.293v.514h.503v-.514c0-.275-.016-.234-.029-.277-.032-.104-.112-.166-.216-.166zm-2.424.177a.223.223 0 0 0-.22.168c-.016.048-.032.142-.032.459v.943c0 .307.019.405.035.456.034.11.116.174.224.174.11 0 .192-.066.225-.182.014-.051.031-.153.031-.487v-.904c0-.299-.02-.399-.035-.448-.036-.113-.119-.179-.228-.179zm4.146-1.36c-.092-.846-.842-1.536-1.686-1.595a87.073 87.073 0 0 0-7.427 0c-.842.059-1.593.75-1.685 1.596a28.685 28.685 0 0 0 0 3.99c.092.846.843 1.537 1.685 1.596a87.08 87.08 0 0 0 7.427 0c.844-.06 1.594-.75 1.686-1.596a28.658 28.658 0 0 0 0-3.99zm-7.691.258h-.703v3.944h-.736V8.685h-.7v-.748h2.139v.748zm2.03 3.949h-.705l.01-.197-.22-.054a.646.646 0 0 1-.2.244.45.45 0 0 1-.26.075.507.507 0 0 1-.28-.07.426.426 0 0 1-.162-.194.905.905 0 0 1-.072-.283 7.755 7.755 0 0 1-.016-.642V9.07h.696v2.241c0 .405.013.508.025.553.027.105.114.168.231.168.122 0 .211-.066.236-.176.011-.045.022-.15.022-.573V9.07h.696v3.564zm2.474-2.576v1.863c0-.013-.015.202-.042.339a.605.605 0 0 1-.175.315.434.434 0 0 1-.314.127.424.424 0 0 1-.242-.075.792.792 0 0 1-.224-.248l-.155-.25-.056.29-.041.21h-.659V7.937h.697v1.7l.213-.328a.736.736 0 0 1 .218-.227.456.456 0 0 1 .249-.07c.106 0 .199.022.274.064a.41.41 0 0 1 .167.173.667.667 0 0 1 .075.238c.042.386.015.578.015.571zm2.409.897h-1.202v.794c0 .244.02.324.037.368a.229.229 0 0 0 .224.144c.12 0 .211-.063.25-.172.029-.079.044-.21.044-.415v-.382h.647v.166c0 .223-.012.397-.035.513a1.084 1.084 0 0 1-.151.362.75.75 0 0 1-.29.277.957.957 0 0 1-.447.092c-.178 0-.335-.031-.47-.092a.744.744 0 0 1-.303-.249 1.067 1.067 0 0 1-.157-.363 2.659 2.659 0 0 1-.046-.485V10.42c0-.443.035-.692.102-.867a.726.726 0 0 1 .307-.38.941.941 0 0 1 .503-.134.97.97 0 0 1 .575.16c.15.109.254.25.316.429.063.188.096.592.096.941v.386zm-7.09-7.169l-.584-1.88h-.529l.787 2.682.004.021v1.905h.62V4.61l.005-.022.682-2.68h-.53c-.156.708-.352 1.388-.455 1.879zm2.859-.292a.797.797 0 0 0-.31-.275 1.054 1.054 0 0 0-.507-.11c-.232 0-.424.056-.568.168a.829.829 0 0 0-.292.43c-.058.192-.086.47-.086.822v.645c0 .327.016.574.048.73.03.147.08.273.148.375a.617.617 0 0 0 .288.225c.136.054.304.082.502.082.175 0 .33-.032.462-.095a.713.713 0 0 0 .307-.277c.082-.127.135-.264.16-.41a5.26 5.26 0 0 0 .04-.764v-.599c0-.27-.016-.469-.043-.595a1.103 1.103 0 0 0-.15-.352zm-.527 2.114c0 .26-.02.351-.037.403-.038.107-.118.169-.222.169-.104 0-.184-.066-.222-.18-.018-.054-.039-.15-.039-.432v-1.43c0-.302.02-.4.04-.454.038-.108.12-.17.224-.17.105 0 .185.064.222.175.017.054.034.15.034.45v1.469zm2.507-2.492V5.35c0 .456-.012.444-.025.498-.013.061-.064.203-.242.203-.168 0-.22-.135-.236-.193-.013-.056-.028-.04-.028-.478V3.116H9.12v2.24c0 .338.006.566.016.675a.921.921 0 0 0 .07.281c.035.08.087.145.161.195.077.053.178.08.302.08a.467.467 0 0 0 .278-.084.637.637 0 0 0 .2-.251l.222.09-.009.172h.727V3.116h-.718z" fill="#fff"/></svg>